<?xml version="1.0" encoding="UTF-8"?>
<svg version="1.1" xmlns="http://www.w3.org/2000/svg" width="847" height="766">
<path d="M0 0 C279.51 0 559.02 0 847 0 C847 252.78 847 505.56 847 766 C567.49 766 287.98 766 0 766 C0 513.22 0 260.44 0 0 Z " fill="#ECC4CB" transform="translate(0,0)"/>
<path d="M0 0 C2.62977342 0.49308252 5.14267118 0.66960688 7.8125 0.8046875 C26.1844694 2.27865639 46.61470459 11.9977404 61.5 22.5546875 C65.96041727 25.4948124 68.88745166 26.10137637 74.140625 25.25 C76.80303514 24.4935759 76.80303514 24.4935759 79.91015625 23.02734375 C83.76915575 21.33677376 87.66116218 20.45239196 91.8125 19.8046875 C92.62750977 19.67731201 93.44251953 19.54993652 94.28222656 19.41870117 C109.2281459 17.43681165 124.58324369 18.25247334 139.625 18.4921875 C139.625 19.1521875 139.625 19.8121875 139.625 20.4921875 C140.800625 20.3890625 141.97625 20.2859375 143.1875 20.1796875 C150.39377813 20.1796875 156.97357401 22.98913241 163.625 25.4921875 C164.7078125 25.88792969 165.790625 26.28367187 166.90625 26.69140625 C173.90894938 29.40765949 179.6614104 32.95864235 185.625 37.4921875 C186.63820313 38.21728516 186.63820313 38.21728516 187.671875 38.95703125 C203.44112266 50.34242806 219.20748513 66.9170506 225.125 85.8671875 C226.02100991 88.715219 227.00572756 91.4214375 228.140625 94.19140625 C229.85260675 98.7096044 230.33324458 103.15582677 230.875 107.9296875 C231.97050598 115.97702758 233.8939153 120.60685 239.625 126.4921875 C247.96104563 137.02985241 255.96245294 150.61188668 257.203125 164.16015625 C257.9184127 176.6930569 257.9184127 176.6930569 263.71875 187.296875 C266.61589505 189.67793264 269.74976724 191.63812324 272.99365234 193.51123047 C287.03462816 201.95430752 296.59691338 220.20127117 302.83007812 234.71533203 C303.87023636 237.04035403 305.09199569 239.23080361 306.375 241.4296875 C308.96551124 245.92626052 310.76002753 250.66021338 312.625 255.4921875 C318.24694987 269.92185884 327.04457215 285.40859949 340.625 293.4921875 C341.04007813 293.97171875 341.45515625 294.45125 341.8828125 294.9453125 C344.36600291 297.15011833 346.97542668 297.79083149 350.125 298.8046875 C356.73782009 301.04113796 362.64255873 303.90799361 368.625 307.4921875 C369.57503906 308.03875 370.52507813 308.5853125 371.50390625 309.1484375 C377.72609126 312.87328295 382.11758884 316.85792355 386.625 322.4921875 C387.14320313 323.00652344 387.66140625 323.52085937 388.1953125 324.05078125 C397.92668176 333.86191583 400.8455206 351.77037325 400.81561852 364.94423389 C400.80524425 366.39125158 400.7917233 367.83824955 400.77532959 369.28521156 C400.74953063 371.58480647 400.73670491 373.88416761 400.72705078 376.18388367 C400.7043464 381.05759112 400.66580825 385.93110247 400.625 390.8046875 C400.57772151 396.47323907 400.53701634 402.14168235 400.51312256 407.81038475 C400.50018667 410.07282158 400.47518532 412.33491901 400.44970703 414.59724426 C400.4424426 415.98320219 400.43573906 417.3691632 400.4296875 418.75512695 C400.41921387 419.96264114 400.40874023 421.17015533 400.39794922 422.41426086 C400.62045007 425.43050818 401.15310522 426.92098662 402.625 429.4921875 C402.83125 430.6265625 403.0375 431.7609375 403.25 432.9296875 C405.22281534 441.39370171 411.97724444 452.00637083 418.875 457.1796875 C419.4525 457.6128125 420.03 458.0459375 420.625 458.4921875 C420.625 459.1521875 420.625 459.8121875 420.625 460.4921875 C421.18960938 460.74097656 421.75421875 460.98976563 422.3359375 461.24609375 C438.38906797 469.98491392 448.545272 486.691391 453.625 503.4921875 C453.87636719 504.265625 454.12773438 505.0390625 454.38671875 505.8359375 C459.49871885 524.10861869 454.66816653 547.75029855 446.625 564.4921875 C445.89990234 565.66201172 445.89990234 565.66201172 445.16015625 566.85546875 C443.23897085 570.15521467 441.92956921 573.60551371 440.625 577.1796875 C440.36227295 577.89592285 440.0995459 578.6121582 439.82885742 579.35009766 C439.08559172 581.39448242 438.35323221 583.4424077 437.625 585.4921875 C437.15513672 586.79736328 437.15513672 586.79736328 436.67578125 588.12890625 C433.41707815 598.00846643 431.89987035 608.82741965 431.125 619.1796875 C430.60595006 626.06504378 429.04461823 632.74716202 427.625 639.4921875 C427.29018357 641.28357761 426.95664181 643.07520696 426.625 644.8671875 C425.67906902 649.56582825 424.27500125 653.99709065 422.625 658.4921875 C422.34914063 659.29527344 422.07328125 660.09835937 421.7890625 660.92578125 C419.64838487 666.78977425 416.7876681 671.36666541 412.91796875 676.265625 C411.39692934 678.34667354 411.39692934 678.34667354 411.92382812 680.40087891 C412.62480543 682.49160716 413.46956351 684.26020533 414.55078125 686.1796875 C414.93347168 686.87280029 415.31616211 687.56591309 415.71044922 688.2800293 C416.11537598 689.0100415 416.52030273 689.74005371 416.9375 690.4921875 C420.22747495 696.5401827 422.87224712 702.40844047 424.8515625 709.02734375 C425.80415369 712.06312679 427.14733719 714.68462816 428.625 717.4921875 C428.625 718.1521875 428.625 718.8121875 428.625 719.4921875 C260.985 719.4921875 93.345 719.4921875 -79.375 719.4921875 C-76.83378765 714.40976281 -73.78190688 709.7293843 -70.71777344 704.94873047 C-69.63883098 703.26378682 -68.56547094 701.57527274 -67.4921875 699.88671875 C-64.04422757 694.49687805 -60.53906478 689.22923858 -56.63964844 684.15576172 C-52.35479712 678.5192797 -48.78261039 672.34507594 -45.4375 666.1171875 C-44.41707879 664.24196318 -43.39622522 662.36697409 -42.375 660.4921875 C-41.81554687 659.43773437 -41.25609375 658.38328125 -40.6796875 657.296875 C-35.57931238 648.26985126 -29.43087248 642.71284643 -21.375 636.4921875 C-19.3435954 634.87974455 -17.32779914 633.24990311 -15.3125 631.6171875 C-14.45527344 630.93914063 -13.59804688 630.26109375 -12.71484375 629.5625 C-10.26290295 627.39300313 -8.40385293 625.05452367 -6.375 622.4921875 C-2.44921548 618.80586858 1.20950399 615.9404279 6.375 614.3046875 C10.39320508 614.53650702 11.89291346 615.59451995 14.625 618.4921875 C14.625 619.1521875 14.625 619.8121875 14.625 620.4921875 C15.4603125 620.6159375 15.4603125 620.6159375 16.3125 620.7421875 C18.625 621.4921875 18.625 621.4921875 20.84375 623.5859375 C23.51261475 625.80834586 23.51261475 625.80834586 26.89453125 625.4453125 C28.64830078 625.09726563 28.64830078 625.09726563 30.4375 624.7421875 C39.11538071 623.22513864 47.10454622 622.69054676 55.625 625.4921875 C57.13612272 626.65701126 58.64918468 627.82688983 60.0546875 629.1171875 C68.66218847 636.65410377 78.38786889 636.35592507 89.23828125 635.70166016 C95.77380998 635.12806322 101.92208433 633.79414665 107.83789062 630.94458008 C111.64515705 629.30594245 114.88092876 629.18976252 119.04296875 629.3046875 C120.46695442 629.33052965 121.89094557 629.35607181 123.31494141 629.38134766 C124.04980774 629.39997864 124.78467407 629.41860962 125.54180908 629.43780518 C138.47648411 629.74758652 150.76146456 629.31253105 163.50048828 626.86816406 C166.36247042 626.36167676 169.23268081 626.03698376 172.12084961 625.71972656 C183.03979046 624.51754666 191.78168984 622.21441482 201.3840332 616.88378906 C206.77829826 613.89314801 212.28875532 611.22930959 217.875 608.6171875 C224.91591062 605.31570176 231.8339121 601.85410205 238.6875 598.1796875 C244.48966489 595.07130075 250.2551579 592.31724564 256.38671875 589.90625 C261.69745077 587.587209 266.76804311 584.80822175 271.86523438 582.05664062 C276.37857441 579.62869707 280.87971981 577.4308467 285.625 575.4921875 C285.65034413 573.60376906 285.65034413 573.60376906 284.625 571.4921875 C282.33510658 569.98851075 280.18915161 568.76079959 277.75 567.5546875 C277.07106689 567.20696289 276.39213379 566.85923828 275.69262695 566.50097656 C266.04436845 561.59605369 266.04436845 561.59605369 256.0078125 557.58203125 C249.45397331 555.28121536 244.91528858 552.02881689 240.625 546.4921875 C240.625 545.8321875 240.625 545.1721875 240.625 544.4921875 C239.635 544.1621875 238.645 543.8321875 237.625 543.4921875 C235.91913425 541.86566434 234.2472454 540.20212184 232.625 538.4921875 C231.635 539.4821875 230.645 540.4721875 229.625 541.4921875 C228.92375 541.1415625 228.2225 540.7909375 227.5 540.4296875 C224.06164133 539.30848359 222.0972451 539.58638443 218.625 540.4921875 C217.635 541.1521875 216.645 541.8121875 215.625 542.4921875 C213.975 542.4921875 212.325 542.4921875 210.625 542.4921875 C210.625 545.7921875 210.625 549.0921875 210.625 552.4921875 C200.76086957 558.47044837 200.76086957 558.47044837 195.625 557.4921875 C195.1724585 556.99581787 194.71991699 556.49944824 194.25366211 555.98803711 C192.09504732 554.00545087 190.8407754 554.09266422 187.94140625 554.05859375 C187.01908203 554.04747559 186.09675781 554.03635742 185.14648438 554.02490234 C184.17001953 554.03473145 183.19355469 554.04456055 182.1875 554.0546875 C181.19427734 554.05936035 180.20105469 554.0640332 179.17773438 554.06884766 C171.69592179 554.21931576 165.49473539 555.47566908 158.625 558.4921875 C157.65175781 558.80285156 156.67851562 559.11351562 155.67578125 559.43359375 C152.50558924 560.53362196 149.75633922 561.95074832 146.8125 563.5546875 C141.54436831 566.23795756 137.53903635 567.4921875 131.625 567.4921875 C129.625 565.4921875 129.625 565.4921875 129.5 562.8671875 C129.54125 562.0834375 129.5825 561.2996875 129.625 560.4921875 C128.861875 560.3684375 128.09875 560.2446875 127.3125 560.1171875 C124.625 559.4921875 124.625 559.4921875 121.625 557.4921875 C115.43945498 556.64247452 109.94324229 557.26467655 104.8671875 561.015625 C103.00731626 562.49791924 101.22361717 564.02154027 99.47143555 565.62963867 C96.83519827 568.00532439 95.13217221 569.41620908 91.57421875 569.94921875 C88.48398615 569.47033502 85.80674394 568.70272512 82.875 567.6171875 C78.19533533 565.96417162 73.67547498 564.78376508 68.78125 563.984375 C66.32611846 563.42396454 64.66469238 562.99862697 62.625 561.4921875 C61.83203125 558.70703125 61.83203125 558.70703125 61.4375 555.4296875 C61.26575681 551.64354241 61.26575681 551.64354241 59.625 548.4921875 C58.25597731 543.18597547 57.33574461 537.98803985 57.625 532.4921875 C56.965 532.4921875 56.305 532.4921875 55.625 532.4921875 C55.14540222 530.26311355 54.6663392 528.03392453 54.1875 525.8046875 C53.92066406 524.56332031 53.65382813 523.32195313 53.37890625 522.04296875 C52.77444864 519.19606735 52.18735316 516.34763124 51.625 513.4921875 C41.31951682 515.78229487 32.85135511 521.94880353 24.26171875 527.80517578 C19.43400754 531.05525994 14.47859866 533.74733007 9.21875 536.25 C5.91199504 537.83365674 2.79080072 539.64547041 -0.375 541.4921875 C-3.18693513 543.05437368 -4.08915274 543.4921875 -7.375 543.4921875 C-7.375 544.1521875 -7.375 544.8121875 -7.375 545.4921875 C-14.7343438 549.52273276 -21.76397086 549.90344348 -30 549.9296875 C-30.97718994 549.93935547 -31.95437988 549.94902344 -32.96118164 549.95898438 C-46.67176189 549.80148468 -57.57874406 543.65003555 -67.53515625 534.40625 C-73.8843412 527.80094081 -77.07178569 521.23149601 -79.52099609 512.54858398 C-81.13275262 506.9154615 -83.44641597 501.91178618 -86.23828125 496.75 C-87.375 494.4921875 -87.375 494.4921875 -87.375 492.4921875 C-88.035 492.4921875 -88.695 492.4921875 -89.375 492.4921875 C-89.375 491.8321875 -89.375 491.1721875 -89.375 490.4921875 C-90.365 490.1621875 -91.355 489.8321875 -92.375 489.4921875 C-95.0625 487.0546875 -95.0625 487.0546875 -97.375 484.4921875 C-97.375 483.8321875 -97.375 483.1721875 -97.375 482.4921875 C-98.035 482.4921875 -98.695 482.4921875 -99.375 482.4921875 C-99.65214844 481.92628906 -99.92929688 481.36039063 -100.21484375 480.77734375 C-100.57707031 480.04386719 -100.93929687 479.31039063 -101.3125 478.5546875 C-101.85197266 477.45833984 -101.85197266 477.45833984 -102.40234375 476.33984375 C-103.23871827 474.52969723 -103.23871827 474.52969723 -104.375 473.4921875 C-104.54488187 469.93976884 -104.67230825 466.39401448 -104.71679688 462.83789062 C-104.86814294 458.1828973 -104.86814294 458.1828973 -107.10546875 454.19921875 C-108.66442732 453.02664578 -110.24261862 451.87934578 -111.8359375 450.75390625 C-115.24301545 447.71898604 -116.95364944 444.33740937 -119 440.3046875 C-119.3815625 439.58732422 -119.763125 438.86996094 -120.15625 438.13085938 C-124.97498372 428.85064288 -126.88512119 421.04514858 -126.8125 410.5546875 C-126.83248047 409.53439453 -126.85246094 408.51410156 -126.87304688 407.46289062 C-126.86847911 400.30520244 -125.46701827 394.91645604 -122.375 388.4921875 C-121.83617187 387.30109375 -121.29734375 386.11 -120.7421875 384.8828125 C-119.74239889 382.77854538 -118.74239678 380.67437969 -117.7421875 378.5703125 C-114.59403078 371.72151352 -114.59403078 371.72151352 -115.375 364.4921875 C-116.035 363.5021875 -116.695 362.5121875 -117.375 361.4921875 C-120.0727528 361.20837076 -122.61139537 361.07992605 -125.3125 361.0546875 C-132.62749538 360.83245783 -138.67276225 359.60445773 -145.375 356.4921875 C-145.375 355.8321875 -145.375 355.1721875 -145.375 354.4921875 C-142.72761084 353.031559 -141.48051666 352.4921875 -138.375 352.4921875 C-138.375 351.8321875 -138.375 351.1721875 -138.375 350.4921875 C-137.78332031 350.46640625 -137.19164062 350.440625 -136.58203125 350.4140625 C-131.27951431 350.03345769 -128.27065546 349.38784296 -124.375 345.4921875 C-123.776875 344.9146875 -123.17875 344.3371875 -122.5625 343.7421875 C-122.170625 343.3296875 -121.77875 342.9171875 -121.375 342.4921875 C-121.705 342.1621875 -122.035 341.8321875 -122.375 341.4921875 C-122.52320818 338.8244403 -122.42618819 336.67491742 -121.703125 334.09375 C-121.28338249 330.76579156 -122.04410618 329.78606724 -124 327.1171875 C-124.83724609 325.96089844 -124.83724609 325.96089844 -125.69140625 324.78125 C-126.24699219 324.02585937 -126.80257812 323.27046875 -127.375 322.4921875 C-127.81714844 321.79867188 -128.25929687 321.10515625 -128.71484375 320.390625 C-130.04900351 318.24264926 -130.04900351 318.24264926 -132.375 315.4921875 C-133.57382813 315.36070312 -133.57382813 315.36070312 -134.796875 315.2265625 C-137.375 314.4921875 -137.375 314.4921875 -139.32421875 311.6328125 C-139.93324586 310.34957188 -140.51072522 309.05106683 -141.0625 307.7421875 C-141.36502686 307.03989014 -141.66755371 306.33759277 -141.97924805 305.61401367 C-145.26658007 297.28134556 -145.66757097 288.73983881 -146.20117188 279.88476562 C-146.64322558 273.8003185 -147.74328485 267.77307847 -148.89575195 261.78759766 C-149.42136785 258.17335241 -149.50459697 254.72637176 -149.5078125 251.07421875 C-149.50924759 250.02738167 -149.50924759 250.02738167 -149.51071167 248.95939636 C-149.51138902 247.48782257 -149.50956589 246.01624571 -149.50537109 244.54467773 C-149.5000572 242.32854228 -149.50531019 240.11261326 -149.51171875 237.89648438 C-149.51733924 227.62827306 -149.44313541 217.51848358 -146.6796875 207.5625 C-146.16711886 204.0796618 -146.67613171 201.47465452 -148.72265625 198.59765625 C-149.28855469 197.96472656 -149.85445312 197.33179688 -150.4375 196.6796875 C-170.1851024 172.16681499 -174.77503458 137.6941686 -172.18896484 107.30615234 C-170.41729229 93.75700681 -163.02478882 81.83279253 -153.375 72.4921875 C-152.64152344 71.77289063 -151.90804687 71.05359375 -151.15234375 70.3125 C-144.11563742 63.7349791 -137.08325219 59.10893781 -127.75 56.5546875 C-121.46172559 54.76858139 -117.83024805 52.17464333 -113.375 47.4921875 C-112.78332031 46.92242187 -112.19164062 46.35265625 -111.58203125 45.765625 C-108.61621815 42.89801763 -105.91686662 39.93904753 -103.3125 36.7421875 C-95.41590208 27.60342811 -84.6592315 20.62900761 -74.375 14.4921875 C-73.75367188 14.10546875 -73.13234375 13.71875 -72.4921875 13.3203125 C-52.24410442 1.07728552 -23.08067511 -4.89793396 0 0 Z " fill="#160F14" transform="translate(320.375,46.5078125)"/>
<path d="M0 0 C5.88238354 -0.22718171 9.126626 0.22349193 13.76953125 4.203125 C18.16029614 7.7770034 20.89352903 9.25791168 26.55859375 9.52734375 C27.50089844 9.58728516 28.44320312 9.64722656 29.4140625 9.70898438 C31.37658787 9.82858782 33.34027613 9.93061287 35.3046875 10.01367188 C42.63251344 10.52572484 47.04096804 12.69214966 52.76953125 17.203125 C53.63578125 17.780625 54.50203125 18.358125 55.39453125 18.953125 C64.98294708 28.03688737 69.39947923 40.27776583 70.76953125 53.203125 C70.82633328 55.87343782 70.80367237 58.53158243 70.76953125 61.203125 C71.65922607 61.18741455 71.65922607 61.18741455 72.56689453 61.17138672 C94.57210004 60.83494173 113.11105502 61.70189689 130.14453125 77.390625 C132.65703767 81.73919381 133.1241568 86.27110554 133.76953125 91.203125 C133.93775391 92.39035156 133.93775391 92.39035156 134.109375 93.6015625 C134.77830207 98.82469165 134.85306828 103.94029183 134.76953125 109.203125 C135.48238281 109.17992187 136.19523438 109.15671875 136.9296875 109.1328125 C144.41774981 108.99171846 150.61319915 108.88319478 156.33203125 114.265625 C159.4232133 117.58450573 161.858604 121.19148004 164.30859375 124.99609375 C167.97046313 130.52806219 172.17154752 136.20481093 178.76953125 138.203125 C189.10840227 139.48556808 195.28254859 137.7053157 203.296875 131.48828125 C205.22144153 129.98104333 207.13278629 128.46275449 209.02319336 126.9128418 C213.56955635 123.203125 213.56955635 123.203125 215.76953125 123.203125 C215.76953125 122.543125 215.76953125 121.883125 215.76953125 121.203125 C217.64190496 120.23967056 219.51756115 119.28259398 221.39453125 118.328125 C222.43867188 117.79445313 223.4828125 117.26078125 224.55859375 116.7109375 C232.8846934 112.80111455 241.67777017 111.53057468 250.76953125 113.203125 C255.88161402 115.08841568 260.34855267 118.06430027 264.76953125 121.203125 C264.76953125 121.863125 264.76953125 122.523125 264.76953125 123.203125 C265.37667969 123.45707031 265.98382812 123.71101563 266.609375 123.97265625 C269.05557492 125.36606127 269.90459704 126.49272396 271.33203125 128.890625 C271.72519531 129.53386719 272.11835937 130.17710937 272.5234375 130.83984375 C272.93464844 131.61972656 273.34585937 132.39960938 273.76953125 133.203125 C274.30320312 134.21246094 274.836875 135.22179687 275.38671875 136.26171875 C280.12389482 147.64340357 277.90393772 164.17081757 273.53295898 175.37670898 C269.09402433 185.65787065 262.57624874 194.658013 255.30078125 203.1171875 C253.6395944 205.06167112 253.6395944 205.06167112 253.390625 207.2734375 C252.39545229 210.36535774 250.13235398 211.01108624 247.33203125 212.453125 C245.84896484 213.23429687 245.84896484 213.23429687 244.3359375 214.03125 C241.76953125 215.203125 241.76953125 215.203125 239.76953125 215.203125 C240.41176259 220.02344932 240.41176259 220.02344932 241.45703125 224.765625 C241.76953125 227.203125 241.76953125 227.203125 240.859375 229.73828125 C239.46711649 234.16456548 239.06761295 238.47277664 238.64453125 243.078125 C238.55816406 243.95726562 238.47179687 244.83640625 238.3828125 245.7421875 C238.17218818 247.89523608 237.97000417 250.04910749 237.76953125 252.203125 C240.73953125 252.203125 243.70953125 252.203125 246.76953125 252.203125 C248.05271017 256.05266176 247.83596762 259.15050635 247.76953125 263.203125 C246.29806641 263.36748047 246.29806641 263.36748047 244.796875 263.53515625 C235.33378161 264.63304508 226.08369546 266.19576202 216.76953125 268.203125 C217.878125 268.70199219 218.98671875 269.20085937 220.12890625 269.71484375 C223.35799761 271.57083962 223.72688165 272.09799143 225.22265625 275.78515625 C225.51806172 277.18937593 225.78231384 278.60041293 226.01953125 280.015625 C226.170271 280.76320068 226.32101074 281.51077637 226.47631836 282.28100586 C226.93555571 284.58399972 227.35507921 286.89170071 227.76953125 289.203125 C228.28044457 291.89266149 228.80602807 294.57896262 229.33203125 297.265625 C229.57179688 298.49152344 229.8115625 299.71742188 230.05859375 300.98046875 C230.76748007 304.19382707 231.68831155 307.08699986 232.953125 310.11328125 C234.06131429 312.95003374 234.89849391 315.84781552 235.76953125 318.765625 C237.17796846 323.42099378 238.7804297 327.77285336 240.76953125 332.203125 C241.07890625 333.151875 241.38828125 334.100625 241.70703125 335.078125 C243.12604534 339.25169586 244.91869473 343.20559333 246.76953125 347.203125 C247.04410156 347.81800781 247.31867188 348.43289063 247.6015625 349.06640625 C250.07297355 354.33649284 253.22873911 359.16180307 256.4206543 364.01635742 C258.33261873 366.92953201 260.16712931 369.85460513 261.87890625 372.890625 C263.32950706 375.43217352 264.79174165 377.78891138 266.51953125 380.140625 C267.26203125 381.15125 268.00453125 382.161875 268.76953125 383.203125 C267.77953125 383.863125 266.78953125 384.523125 265.76953125 385.203125 C264.59390625 386.0075 264.59390625 386.0075 263.39453125 386.828125 C260.76953125 388.203125 260.76953125 388.203125 255.76953125 388.203125 C255.76953125 391.503125 255.76953125 394.803125 255.76953125 398.203125 C245.90540082 404.18138587 245.90540082 404.18138587 240.76953125 403.203125 C240.31698975 402.70675537 239.86444824 402.21038574 239.39819336 401.69897461 C237.23957857 399.71638837 235.98530665 399.80360172 233.0859375 399.76953125 C232.16361328 399.75841309 231.24128906 399.74729492 230.29101562 399.73583984 C229.31455078 399.74566895 228.33808594 399.75549805 227.33203125 399.765625 C225.84219727 399.77263428 225.84219727 399.77263428 224.32226562 399.77978516 C216.84045304 399.93025326 210.63926664 401.18660658 203.76953125 404.203125 C202.79628906 404.51378906 201.82304687 404.82445312 200.8203125 405.14453125 C197.65012049 406.24455946 194.90087047 407.66168582 191.95703125 409.265625 C186.68889956 411.94889506 182.6835676 413.203125 176.76953125 413.203125 C174.76953125 411.203125 174.76953125 411.203125 174.64453125 408.578125 C174.68578125 407.794375 174.72703125 407.010625 174.76953125 406.203125 C174.00640625 406.079375 173.24328125 405.955625 172.45703125 405.828125 C169.76953125 405.203125 169.76953125 405.203125 166.76953125 403.203125 C160.58398623 402.35341202 155.08777354 402.97561405 150.01171875 406.7265625 C148.15184751 408.20885674 146.36814842 409.73247777 144.6159668 411.34057617 C141.97972952 413.71626189 140.27670346 415.12714658 136.71875 415.66015625 C133.6285174 415.18127252 130.95127519 414.41366262 128.01953125 413.328125 C123.33986658 411.67510912 118.82000623 410.49470258 113.92578125 409.6953125 C111.47064971 409.13490204 109.80922363 408.70956447 107.76953125 407.203125 C106.9765625 404.41796875 106.9765625 404.41796875 106.58203125 401.140625 C106.41028806 397.35447991 106.41028806 397.35447991 104.76953125 394.203125 C103.40050856 388.89691297 102.48027586 383.69897735 102.76953125 378.203125 C102.10953125 378.203125 101.44953125 378.203125 100.76953125 378.203125 C100.28993347 375.97405105 99.81087045 373.74486203 99.33203125 371.515625 C99.06519531 370.27425781 98.79835938 369.03289062 98.5234375 367.75390625 C97.91897989 364.90700485 97.33188441 362.05856874 96.76953125 359.203125 C86.46404807 361.49323237 77.99588636 367.65974103 69.40625 373.51611328 C64.57853879 376.76619744 59.62312991 379.45826757 54.36328125 381.9609375 C51.05652629 383.54459424 47.93533197 385.35640791 44.76953125 387.203125 C41.95759612 388.76531118 41.05537851 389.203125 37.76953125 389.203125 C37.76953125 389.863125 37.76953125 390.523125 37.76953125 391.203125 C30.41018745 395.23367026 23.38056039 395.61438098 15.14453125 395.640625 C14.16734131 395.65029297 13.19015137 395.65996094 12.18334961 395.66992188 C-1.52723064 395.51242218 -12.43421281 389.36097305 -22.390625 380.1171875 C-28.73980995 373.51187831 -31.92725444 366.94243351 -34.37646484 358.25952148 C-35.98822137 352.626399 -38.30188472 347.62272368 -41.09375 342.4609375 C-42.23046875 340.203125 -42.23046875 340.203125 -42.23046875 338.203125 C-42.89046875 338.203125 -43.55046875 338.203125 -44.23046875 338.203125 C-44.23046875 337.543125 -44.23046875 336.883125 -44.23046875 336.203125 C-45.22046875 335.873125 -46.21046875 335.543125 -47.23046875 335.203125 C-49.91796875 332.765625 -49.91796875 332.765625 -52.23046875 330.203125 C-52.23046875 329.543125 -52.23046875 328.883125 -52.23046875 328.203125 C-52.89046875 328.203125 -53.55046875 328.203125 -54.23046875 328.203125 C-54.50761719 327.63722656 -54.78476563 327.07132813 -55.0703125 326.48828125 C-55.43253906 325.75480469 -55.79476562 325.02132813 -56.16796875 324.265625 C-56.70744141 323.16927734 -56.70744141 323.16927734 -57.2578125 322.05078125 C-58.09418702 320.24063473 -58.09418702 320.24063473 -59.23046875 319.203125 C-59.40035062 315.65070634 -59.527777 312.10495198 -59.57226562 308.54882812 C-59.72361169 303.8938348 -59.72361169 303.8938348 -61.9609375 299.91015625 C-63.51989607 298.73758328 -65.09808737 297.59028328 -66.69140625 296.46484375 C-70.0984842 293.42992354 -71.80911819 290.04834687 -73.85546875 286.015625 C-74.23703125 285.29826172 -74.61859375 284.58089844 -75.01171875 283.84179688 C-79.83045247 274.56158038 -81.74058994 266.75608608 -81.66796875 256.265625 C-81.69793945 254.73518555 -81.69793945 254.73518555 -81.72851562 253.17382812 C-81.72394786 246.01613994 -80.32248702 240.62739354 -77.23046875 234.203125 C-76.42222656 232.41648437 -76.42222656 232.41648437 -75.59765625 230.59375 C-74.59786764 228.48948288 -73.59786553 226.38531719 -72.59765625 224.28125 C-69.44949953 217.43245102 -69.44949953 217.43245102 -70.23046875 210.203125 C-70.89046875 209.213125 -71.55046875 208.223125 -72.23046875 207.203125 C-74.92822155 206.91930826 -77.46686412 206.79086355 -80.16796875 206.765625 C-87.48296413 206.54339533 -93.528231 205.31539523 -100.23046875 202.203125 C-100.23046875 201.543125 -100.23046875 200.883125 -100.23046875 200.203125 C-97.58307959 198.7424965 -96.33598541 198.203125 -93.23046875 198.203125 C-93.23046875 197.543125 -93.23046875 196.883125 -93.23046875 196.203125 C-92.34294922 196.16445313 -92.34294922 196.16445313 -91.4375 196.125 C-86.13498306 195.74439519 -83.12612421 195.09878046 -79.23046875 191.203125 C-78.63234375 190.625625 -78.03421875 190.048125 -77.41796875 189.453125 C-76.83015625 188.834375 -76.83015625 188.834375 -76.23046875 188.203125 C-76.56046875 187.873125 -76.89046875 187.543125 -77.23046875 187.203125 C-77.37867693 184.5353778 -77.28165694 182.38585492 -76.55859375 179.8046875 C-76.13885124 176.47672906 -76.89957493 175.49700474 -78.85546875 172.828125 C-79.41363281 172.05726563 -79.97179687 171.28640625 -80.546875 170.4921875 C-81.10246094 169.73679687 -81.65804687 168.98140625 -82.23046875 168.203125 C-82.67261719 167.50960937 -83.11476562 166.81609375 -83.5703125 166.1015625 C-84.90447226 163.95358676 -84.90447226 163.95358676 -87.23046875 161.203125 C-88.0296875 161.11546875 -88.82890625 161.0278125 -89.65234375 160.9375 C-92.23046875 160.203125 -92.23046875 160.203125 -94.1796875 157.34375 C-94.78871461 156.06050938 -95.36619397 154.76200433 -95.91796875 153.453125 C-96.22049561 152.75082764 -96.52302246 152.04853027 -96.8347168 151.32495117 C-100.12204882 142.99228306 -100.52303972 134.45077631 -101.05664062 125.59570312 C-101.49869433 119.511256 -102.5987536 113.48401597 -103.7512207 107.49853516 C-104.2768366 103.88428991 -104.36006572 100.43730926 -104.36328125 96.78515625 C-104.36423798 96.08726486 -104.3651947 95.38937347 -104.36618042 94.67033386 C-104.36685777 93.19876007 -104.36503464 91.72718321 -104.36083984 90.25561523 C-104.35552595 88.03947978 -104.36077894 85.82355076 -104.3671875 83.60742188 C-104.37557076 68.48773695 -104.28105869 53.68826526 -95.76953125 40.6484375 C-94.19845624 38.15226248 -92.96810686 35.62802027 -91.73046875 32.953125 C-89.51867313 28.41500712 -87.08687144 25.45964282 -83.23046875 22.203125 C-82.57046875 22.203125 -81.91046875 22.203125 -81.23046875 22.203125 C-81.23046875 21.543125 -81.23046875 20.883125 -81.23046875 20.203125 C-73.28208805 13.66928663 -63.77930625 10.54832512 -54.23046875 7.203125 C-53.32425781 6.82414063 -52.41804688 6.44515625 -51.484375 6.0546875 C-48.28338543 4.84530149 -45.61281546 4.88403569 -42.23046875 5.203125 C-40.23046875 8.203125 -40.23046875 8.203125 -40.23046875 12.203125 C-38.83634766 11.24599609 -38.83634766 11.24599609 -37.4140625 10.26953125 C-36.16580786 9.43423303 -34.91708476 8.59963457 -33.66796875 7.765625 C-32.7543457 7.13430664 -32.7543457 7.13430664 -31.82226562 6.49023438 C-27.61660418 3.70871225 -24.34974089 2.66147093 -19.23046875 2.203125 C-18.90046875 1.873125 -18.57046875 1.543125 -18.23046875 1.203125 C-13.89132768 0.74428632 -9.53807133 0.52156091 -5.18115234 0.30273438 C-3.45340704 0.21450908 -1.72658662 0.10856409 0 0 Z " fill="#5C2B26" transform="translate(275.23046875,200.796875)"/>
<path d="M0 0 C1.175625 0.7734375 1.175625 0.7734375 2.375 1.5625 C2.98730469 1.95566406 3.59960938 2.34882812 4.23046875 2.75390625 C7.77551507 5.12434641 7.77551507 5.12434641 9.375 6.5625 C9.375 7.2225 9.375 7.8825 9.375 8.5625 C11.355 9.5525 11.355 9.5525 13.375 10.5625 C13.375 11.2225 13.375 11.8825 13.375 12.5625 C14.22771484 12.93568359 14.22771484 12.93568359 15.09765625 13.31640625 C17.72671777 14.75494934 19.6203153 16.45568611 21.8125 18.5 C32.10798003 27.93120557 42.90289619 36.76371612 53.9296875 45.32421875 C54.86180054 46.0502832 54.86180054 46.0502832 55.81274414 46.79101562 C57.02820212 47.73691703 58.2460032 48.6798183 59.46655273 49.61914062 C63.02786991 52.390467 66.18996196 55.35572109 69.375 58.5625 C71.0146875 59.6453125 71.0146875 59.6453125 72.6875 60.75 C73.574375 61.348125 74.46125 61.94625 75.375 62.5625 C75.375 63.2225 75.375 63.8825 75.375 64.5625 C76.07496094 64.80097656 76.77492188 65.03945313 77.49609375 65.28515625 C92.23812206 71.82605619 108.48425938 88.51720769 117.375 101.5625 C117.375 102.2225 117.375 102.8825 117.375 103.5625 C118.035 103.5625 118.695 103.5625 119.375 103.5625 C126.6484357 112.23804379 131.15530128 123.24252167 134.49609375 133.921875 C135.52070567 137.0002646 136.86796776 139.69913874 138.375 142.5625 C138.375 143.2225 138.375 143.8825 138.375 144.5625 C-29.265 144.5625 -196.905 144.5625 -369.625 144.5625 C-367.08378765 139.48007531 -364.03190688 134.7996968 -360.96777344 130.01904297 C-359.88883098 128.33409932 -358.81547094 126.64558524 -357.7421875 124.95703125 C-354.29422757 119.56719055 -350.78906478 114.29955108 -346.88964844 109.22607422 C-342.60479712 103.5895922 -339.03261039 97.41538844 -335.6875 91.1875 C-334.66707879 89.31227568 -333.64622522 87.43728659 -332.625 85.5625 C-331.78582031 83.98082031 -331.78582031 83.98082031 -330.9296875 82.3671875 C-325.82931238 73.34016376 -319.68087248 67.78315893 -311.625 61.5625 C-309.5935954 59.95005705 -307.57779914 58.32021561 -305.5625 56.6875 C-304.27666016 55.67042969 -304.27666016 55.67042969 -302.96484375 54.6328125 C-300.51290295 52.46331563 -298.65385293 50.12483617 -296.625 47.5625 C-292.69921548 43.87618108 -289.04049601 41.0107404 -283.875 39.375 C-279.85679492 39.60681952 -278.35708654 40.66483245 -275.625 43.5625 C-275.625 44.2225 -275.625 44.8825 -275.625 45.5625 C-275.068125 45.645 -274.51125 45.7275 -273.9375 45.8125 C-271.625 46.5625 -271.625 46.5625 -269.40625 48.65625 C-266.73738525 50.87865836 -266.73738525 50.87865836 -263.35546875 50.515625 C-262.18628906 50.28359375 -261.01710938 50.0515625 -259.8125 49.8125 C-251.13461929 48.29545114 -243.14545378 47.76085926 -234.625 50.5625 C-233.11387728 51.72732376 -231.60081532 52.89720233 -230.1953125 54.1875 C-221.58781153 61.72441627 -211.86213111 61.42623757 -201.01171875 60.77197266 C-194.47619002 60.19837572 -188.32791567 58.86445915 -182.41210938 56.01489258 C-178.60484295 54.37625495 -175.36907124 54.26007502 -171.20703125 54.375 C-169.78304558 54.40084215 -168.35905443 54.42638431 -166.93505859 54.45166016 C-166.20019226 54.47029114 -165.46532593 54.48892212 -164.70819092 54.50811768 C-151.77351589 54.81789902 -139.48853544 54.38284355 -126.74951172 51.93847656 C-123.88752958 51.43198926 -121.01731919 51.10729626 -118.12915039 50.79003906 C-107.21020954 49.58785916 -98.46831016 47.28472732 -88.8659668 41.95410156 C-83.47170174 38.96346051 -77.96124468 36.29962209 -72.375 33.6875 C-65.33408938 30.38601426 -58.4160879 26.92441455 -51.5625 23.25 C-45.75772601 20.14021548 -39.98907894 17.38630539 -33.85546875 14.97265625 C-28.60683481 12.68153551 -23.59608732 9.93742848 -18.56054688 7.21484375 C-3.9375233 -0.65625388 -3.9375233 -0.65625388 0 0 Z " fill="#220203" transform="translate(610.625,621.4375)"/>
<path d="M0 0 C3.96135424 2.8809849 6.96314268 6.15050788 10.05859375 9.90234375 C15.16147961 15.41592465 19.9562488 18.09164672 26.875 20.75 C33.48979971 23.41969646 39.87731978 26.30152131 46.125 29.75 C46.80546387 30.11448242 47.48592773 30.47896484 48.18701172 30.85449219 C52.83627565 33.48951706 52.83627565 33.48951706 53.68310547 36.12988281 C53.78768066 36.74702148 53.89225586 37.36416016 54 38 C23.77940192 54.02166774 23.77940192 54.02166774 16.1875 56.875 C10.88771588 58.90543677 6.00444331 61.60239659 1.02124023 64.29589844 C-5.69924801 67.90219242 -12.5601643 71.16685856 -19.46850586 74.39550781 C-24.39749122 76.71257163 -29.15420275 79.16083156 -33.875 81.875 C-47.60103695 89.30484973 -62.90802933 90.16815124 -78.17016602 91.67456055 C-81.01820923 91.96802657 -81.01820923 91.96802657 -83.87744141 92.54101562 C-87.51605635 93.07585504 -91.04429437 93.05179321 -94.70703125 92.95703125 C-96.19595014 92.93463753 -97.6848834 92.91318272 -99.17382812 92.89257812 C-101.49104594 92.85561036 -103.80751104 92.81262803 -106.12426758 92.75317383 C-114.91435881 92.53873568 -122.15497053 92.53794881 -130 97 C-139.99196458 100.20468456 -155.20595332 101.66052908 -165.07421875 97.5390625 C-168.9280442 95.49347094 -172.54592851 93.51495626 -175.5859375 90.34765625 C-179.04458703 87.05142949 -184.60713004 86.99945973 -189.16259766 87.00048828 C-198.24690429 87.01745446 -198.24690429 87.01745446 -207.05712891 88.67260742 C-207.69827637 88.78064697 -208.33942383 88.88868652 -209 89 C-211.05727132 87.4045651 -213.05874656 85.73473712 -215 84 C-215.99 83.67 -216.98 83.34 -218 83 C-220.75 80.875 -220.75 80.875 -223 78 C-222.8125 74.1875 -222.8125 74.1875 -222 71 C-221.34 71 -220.68 71 -220 71 C-220 70.34 -220 69.68 -220 69 C-218.125 66.875 -218.125 66.875 -216 65 C-215.34 65 -214.68 65 -214 65 C-214 64.34 -214 63.68 -214 63 C-212.65673165 62.11642793 -211.27324062 61.29372075 -209.875 60.5 C-206.10330949 58.10407296 -204.29140459 56.1763265 -202.3125 52.1875 C-199.03495445 46.02347967 -193.99475967 43.32338719 -188.14453125 39.91015625 C-185.61870483 38.37583436 -183.96291962 37.12442566 -182 35 C-181.154375 34.525625 -180.30875 34.05125 -179.4375 33.5625 C-176.84222021 31.89885911 -176.07434297 30.83235875 -175 28 C-174.34 28 -173.68 28 -173 28 C-172.505 26.515 -172.505 26.515 -172 25 C-170.1875 24.1875 -170.1875 24.1875 -168 24 C-167.12021484 24.46019531 -167.12021484 24.46019531 -166.22265625 24.9296875 C-163.55133749 26.21605189 -161.18430719 26.53840382 -158.25 26.9375 C-154.4950969 27.50850108 -151.13860668 28.18021579 -147.625 29.625 C-143.91665868 31.03161223 -141.90333607 31.40906173 -138 31 C-135.29060372 29.40337476 -135.29060372 29.40337476 -132.875 27.1875 C-131.63363281 26.12595703 -131.63363281 26.12595703 -130.3671875 25.04296875 C-128.931626 23.80402706 -127.50258391 22.55740119 -126.0859375 21.296875 C-121.6387187 18.53193747 -116.09746997 18.80557921 -111 19 C-107.82660808 19.77517971 -105.42718007 20.79406423 -103 23 C-101.5 26.25 -101.5 26.25 -101 29 C-93.91438321 28.76381277 -89.10582436 26.85685477 -82.89453125 23.47265625 C-79.97465422 21.98710478 -77.11644281 20.99478505 -74 20 C-73.195625 19.64679687 -72.39125 19.29359375 -71.5625 18.9296875 C-64.5324758 16.03623242 -57.94488079 15.59782025 -50.4375 15.5625 C-49.46103516 15.5526709 -48.48457031 15.5428418 -47.47851562 15.53271484 C-46.55619141 15.54383301 -45.63386719 15.55495117 -44.68359375 15.56640625 C-43.43920532 15.58102905 -43.43920532 15.58102905 -42.16967773 15.59594727 C-39.5250475 16.08844901 -38.7834121 17.05999869 -37 19 C-31.47872833 19.87838413 -28.54172387 17.794907 -24 15 C-23.34 15 -22.68 15 -22 15 C-22 11.7 -22 8.4 -22 5 C-21.0925 4.71125 -20.185 4.4225 -19.25 4.125 C-16.12191528 3.15625677 -16.12191528 3.15625677 -13.9375 1.8125 C-10.72764234 0.46643066 -8.04042701 1.63279047 -4.875 2.75 C-4.25625 2.8325 -3.6375 2.915 -3 3 C-1.22809091 1.64555699 -1.22809091 1.64555699 0 0 Z " fill="#F9CCE8" transform="translate(553,584)"/>
<path d="M0 0 C3.44732959 1.04831075 6.76588339 1.59676595 10.33984375 2.015625 C10.79359375 1.355625 11.24734375 0.695625 11.71484375 0.015625 C12.25109375 -0.644375 12.78734375 -1.304375 13.33984375 -1.984375 C13.99984375 -1.984375 14.65984375 -1.984375 15.33984375 -1.984375 C15.33984375 -2.644375 15.33984375 -3.304375 15.33984375 -3.984375 C16.98984375 -3.654375 18.63984375 -3.324375 20.33984375 -2.984375 C19.86679693 1.27304637 17.45346155 3.27267598 14.33984375 6.015625 C12.85484375 6.510625 12.85484375 6.510625 11.33984375 7.015625 C9.51854184 9.10790689 9.51854184 9.10790689 7.77734375 11.578125 C6.67866596 13.09264643 5.541936 14.58180413 4.33984375 16.015625 C3.67984375 16.015625 3.01984375 16.015625 2.33984375 16.015625 C1.96472656 17.12744141 1.96472656 17.12744141 1.58203125 18.26171875 C0.23840486 21.24051311 -1.1778925 22.84094827 -3.53515625 25.078125 C-4.55222656 26.05458984 -4.55222656 26.05458984 -5.58984375 27.05078125 C-6.27304687 27.69917969 -6.95625 28.34757813 -7.66015625 29.015625 C-8.71589844 30.12744141 -8.71589844 30.12744141 -9.79296875 31.26171875 C-11.66015625 33.015625 -11.66015625 33.015625 -13.66015625 33.015625 C-13.99015625 34.005625 -14.32015625 34.995625 -14.66015625 36.015625 C-16.3671875 37.11328125 -16.3671875 37.11328125 -18.47265625 38.078125 C-19.15972656 38.39910156 -19.84679687 38.72007812 -20.5546875 39.05078125 C-21.24949219 39.36917969 -21.94429687 39.68757812 -22.66015625 40.015625 C-23.253125 40.37914062 -23.84609375 40.74265625 -24.45703125 41.1171875 C-27.68841975 42.43495231 -30.623483 42.31779545 -34.09765625 42.328125 C-35.39574219 42.34488281 -36.69382813 42.36164062 -38.03125 42.37890625 C-41.79786155 42.00183965 -43.69533968 41.31784999 -46.66015625 39.015625 C-47.22265625 37.078125 -47.22265625 37.078125 -47.66015625 35.015625 C-48.68109375 33.9946875 -48.68109375 33.9946875 -49.72265625 32.953125 C-50.36203125 32.31375 -51.00140625 31.674375 -51.66015625 31.015625 C-51.66015625 30.025625 -51.66015625 29.035625 -51.66015625 28.015625 C-52.32015625 28.015625 -52.98015625 28.015625 -53.66015625 28.015625 C-56.57602826 22.18388098 -54.46570016 13.2585903 -53.66015625 7.015625 C-55.31015625 6.685625 -56.96015625 6.355625 -58.66015625 6.015625 C-58.76328125 5.066875 -58.86640625 4.118125 -58.97265625 3.140625 C-59.3455492 -0.27545001 -59.3455492 -0.27545001 -62.66015625 -1.984375 C-62.66015625 -2.644375 -62.66015625 -3.304375 -62.66015625 -3.984375 C-61.05725095 -4.79936062 -59.45278347 -5.61127427 -57.84765625 -6.421875 C-56.95433594 -6.87433594 -56.06101563 -7.32679688 -55.140625 -7.79296875 C-40.22810166 -14.95567681 -14.75840992 -5.06368896 0 0 Z " fill="#501A16" transform="translate(274.66015625,494.984375)"/>
<path d="M0 0 C10.93997569 0.12161671 20.98896988 2.0253217 31.21142578 6.01269531 C35.80332024 7.74558882 40.45858929 9.27203951 45.11767578 10.81347656 C46.00084473 11.10641602 46.88401367 11.39935547 47.79394531 11.70117188 C49.51528929 12.27184356 51.23680221 12.84200595 52.95849609 13.41162109 C56.80513212 14.68568031 60.64900687 15.96799849 64.49267578 17.25097656 C64.49267578 17.58097656 64.49267578 17.91097656 64.49267578 18.25097656 C63.85168945 18.24431473 63.21070313 18.23765289 62.55029297 18.23078918 C55.80034468 18.16374784 49.05049292 18.11889455 42.30029297 18.08618164 C39.79048818 18.07121551 37.28070899 18.05083534 34.77099609 18.0246582 C17.30547585 17.84721965 1.00817007 17.85709823 -15.31982422 24.81347656 C-16.55913696 25.32575806 -16.55913696 25.32575806 -17.82348633 25.84838867 C-30.29618485 31.12962138 -42.35386555 37.47468786 -53.57373047 45.07128906 C-55.50732422 46.25097656 -55.50732422 46.25097656 -57.50732422 46.25097656 C-64.75892884 34.51028337 -64.75892884 34.51028337 -63.50732422 27.25097656 C-59.9869297 21.42878562 -54.75060826 17.67840953 -48.50732422 15.25097656 C-46.66666615 14.32794068 -44.83376711 13.38933076 -43.00732422 12.43847656 C-34.11209226 7.95807717 -24.92958429 4.49070032 -15.33544922 1.82910156 C-10.16830629 0.19504782 -5.79540891 0.00196355 0 0 Z " fill="#1A0703" transform="translate(291.50732421875,289.7490234375)"/>
<path d="M0 0 C4.62 0 9.24 0 14 0 C14 9.57 14 19.14 14 29 C22.58 29 31.16 29 40 29 C41.28317892 32.84953676 41.06643637 35.94738135 41 40 C40.01902344 40.10957031 39.03804687 40.21914063 38.02734375 40.33203125 C28.56425036 41.42992008 19.31416421 42.99263702 10 45 C11.13421387 45.45632813 12.26842773 45.91265625 13.43701172 46.3828125 C15.79558557 47.74368532 16.80777904 48.42818332 17.68511963 51.03808594 C17.95899448 53.66900333 18.02160197 56.22971484 18.0078125 58.875 C18.02721893 59.83647949 18.04662537 60.79795898 18.06661987 61.78857422 C18.10075218 63.81912738 18.11818795 65.85002028 18.12011719 67.88085938 C18.1249844 70.99003387 18.18306811 74.09472919 18.25 77.203125 C18.27657229 79.17704362 18.30011189 81.15100589 18.3203125 83.125 C18.33571075 84.05425293 18.35110901 84.98350586 18.36697388 85.94091797 C18.34970378 92.32714823 18.34970378 92.32714823 16.64648438 95.60424805 C15 97 15 97 12.3359375 97.20703125 C11.35882813 97.07683594 10.38171875 96.94664062 9.375 96.8125 C8.39273437 96.69519531 7.41046875 96.57789063 6.3984375 96.45703125 C4 96 4 96 3 95 C2.90695982 93.52645652 2.88253735 92.04849409 2.88647461 90.57202148 C2.88655014 89.63112167 2.88662567 88.69022186 2.88670349 87.72080994 C2.89186478 86.69790359 2.89702606 85.67499725 2.90234375 84.62109375 C2.9037587 83.57929459 2.90517365 82.53749542 2.90663147 81.46412659 C2.9122492 78.12188906 2.9248047 74.77971743 2.9375 71.4375 C2.94251272 69.17773534 2.94707602 66.91796963 2.95117188 64.65820312 C2.96222439 59.10544609 2.97897976 53.55272775 3 48 C2.195625 47.690625 1.39125 47.38125 0.5625 47.0625 C-2 46 -2 46 -3 45 C-4.74879568 44.89436805 -6.49924318 44.81553635 -8.25 44.75 C-12.07637852 44.4564287 -14.46440327 44.23952707 -17.1875 41.4375 C-17.785625 40.633125 -18.38375 39.82875 -19 39 C-18.0726451 36.68161275 -17.45658454 35.28747916 -15.3125 33.9375 C-12.47633169 32.78770204 -9.77355139 32.33510565 -6.75 31.875 C-5.67234375 31.70742188 -4.5946875 31.53984375 -3.484375 31.3671875 C-2.66453125 31.24601562 -1.8446875 31.12484375 -1 31 C0.11911712 27.64264863 0.11365586 25.11794614 0.09765625 21.58203125 C0.09282227 19.70161133 0.09282227 19.70161133 0.08789062 17.78320312 C0.07951172 16.47287109 0.07113281 15.16253906 0.0625 13.8125 C0.05748317 12.47721519 0.05292059 11.14192859 0.04882812 9.80664062 C0.03702704 6.5377412 0.01909136 3.26886498 0 0 Z " fill="#E9CDD8" transform="translate(482,424)"/>
<path d="M0 0 C0.99 0.495 0.99 0.495 2 1 C1.35933594 1.53367187 0.71867187 2.06734375 0.05859375 2.6171875 C-4.40966148 6.46614655 -8.31171029 10.11731282 -11.5625 15.0625 C-17.76819128 24.29921178 -23.6964405 28.48293017 -34.5390625 31.12890625 C-42.31843231 32.93771785 -42.31843231 32.93771785 -49 37 C-52.40687922 37.33492217 -55.82877845 37.325022 -59.25 37.375 C-60.20519531 37.41238281 -61.16039062 37.44976562 -62.14453125 37.48828125 C-69.26645808 37.57742915 -69.26645808 37.57742915 -73.046875 34.6015625 C-73.69140625 33.74304688 -74.3359375 32.88453125 -75 32 C-75.66 31.34 -76.32 30.68 -77 30 C-77 29.01 -77 28.02 -77 27 C-76.31035156 26.89042969 -75.62070312 26.78085937 -74.91015625 26.66796875 C-71.9275452 26.16472985 -68.9646653 25.59985446 -66 25 C-65.20207031 24.84015625 -64.40414063 24.6803125 -63.58203125 24.515625 C-56.70574889 22.71440413 -52.52446563 18.32230666 -48 13 C-47.67 12.34 -47.34 11.68 -47 11 C-45.92105469 11.06960938 -44.84210938 11.13921875 -43.73046875 11.2109375 C-28.60521454 11.87411648 -14.8934546 8.35880431 -1.71484375 0.78515625 C-1.14894531 0.52605469 -0.58304687 0.26695312 0 0 Z " fill="#060406" transform="translate(341,347)"/>
<path d="M0 0 C0.495 0.99 0.495 0.99 1 2 C1.99 2.33 2.98 2.66 4 3 C4 3.66 4 4.32 4 5 C4.66 5.33 5.32 5.66 6 6 C7.33333333 6.66666667 8.66666667 7.33333333 10 8 C9.67 8.99 9.34 9.98 9 11 C8.814375 12.051875 8.814375 12.051875 8.625 13.125 C8.41875 13.74375 8.2125 14.3625 8 15 C7.01 15.33 6.02 15.66 5 16 C5.495 17.485 5.495 17.485 6 19 C5.01 19.33 4.02 19.66 3 20 C2.67 20.66 2.34 21.32 2 22 C1.505 20.515 1.505 20.515 1 19 C0.38125 19.66 -0.2375 20.32 -0.875 21 C-3 23 -3 23 -5 23 C-5.0928125 23.8971875 -5.0928125 23.8971875 -5.1875 24.8125 C-6.36634932 27.98632509 -7.98044509 28.55586505 -11 30 C-13.31691454 30.72166191 -15.64848923 31.40059529 -18 32 C-18 31.34 -18 30.68 -18 30 C-18.86625 30.556875 -18.86625 30.556875 -19.75 31.125 C-22 32 -22 32 -24.25 31.125 C-24.8275 30.75375 -25.405 30.3825 -26 30 C-26 29.34 -26 28.68 -26 28 C-27.98 28.99 -29.96 29.98 -32 31 C-32.99 30.34 -33.98 29.68 -35 29 C-34.67 28.34 -34.34 27.68 -34 27 C-34.99 27.33 -35.98 27.66 -37 28 C-37.50615298 26.73160474 -38.00469099 25.46016898 -38.5 24.1875 C-38.7784375 23.47980469 -39.056875 22.77210938 -39.34375 22.04296875 C-40 20 -40 20 -40 17 C-38.6875 14.8125 -38.6875 14.8125 -37 13 C-36.01 13 -35.02 13 -34 13 C-34 11.68 -34 10.36 -34 9 C-31.10765685 8.17361624 -29.11257569 8 -26 8 C-24.64613064 6.34997172 -23.31321858 4.6825613 -22 3 C-20.0625 2.25 -20.0625 2.25 -18 2 C-17.175 1.773125 -16.35 1.54625 -15.5 1.3125 C-12.56916288 0.94614536 -11.46830205 1.46795045 -9 3 C-8.34 3.33 -7.68 3.66 -7 4 C-6.67 3.34 -6.34 2.68 -6 2 C-4.68 2.33 -3.36 2.66 -2 3 C-1.34 2.01 -0.68 1.02 0 0 Z M-39 18 C-39 18.66 -39 19.32 -39 20 C-38.34 19.67 -37.68 19.34 -37 19 C-37.66 18.67 -38.32 18.34 -39 18 Z M-32 24 C-32 24.66 -32 25.32 -32 26 C-31.34 25.67 -30.68 25.34 -30 25 C-30.66 24.67 -31.32 24.34 -32 24 Z M-35 25 C-34.67 25.66 -34.34 26.32 -34 27 C-33.34 26.67 -32.68 26.34 -32 26 C-32.99 25.67 -33.98 25.34 -35 25 Z M-23 27 C-22.67 27.99 -22.34 28.98 -22 30 C-22 29.01 -22 28.02 -22 27 C-22.33 27 -22.66 27 -23 27 Z M-18 28 C-17.67 28.66 -17.34 29.32 -17 30 C-16.67 29.34 -16.34 28.68 -16 28 C-16.66 28 -17.32 28 -18 28 Z " fill="#541C17" transform="translate(348,396)"/>
<path d="M0 0 C1.98 0.66 3.96 1.32 6 2 C6.33 1.67 6.66 1.34 7 1 C9.6165703 -0.11006013 11.31702059 -0.24985881 13.9980011 0.73094177 C19.53711454 3.70909329 19.53711454 3.70909329 20.76303101 7.12796021 C21.07428025 9.76959009 21.13426756 12.31280259 21.10546875 14.97265625 C21.12346024 15.93272079 21.14145172 16.89278534 21.1599884 17.88194275 C21.19038922 19.90653459 21.20183338 21.93148849 21.19555664 23.95629883 C21.18751475 27.05681147 21.23809489 30.15209915 21.29882812 33.25195312 C21.32114186 35.22131826 21.34013499 37.1907244 21.35546875 39.16015625 C21.36772995 40.08627213 21.37999115 41.012388 21.3926239 41.96656799 C21.35162344 48.32512108 21.35162344 48.32512108 19.64428711 51.60205078 C18 53 18 53 15.3359375 53.20703125 C14.35882813 53.07683594 13.38171875 52.94664062 12.375 52.8125 C11.39273437 52.69519531 10.41046875 52.57789063 9.3984375 52.45703125 C7 52 7 52 6 51 C5.90695982 49.52645652 5.88253735 48.04849409 5.88647461 46.57202148 C5.88655014 45.63112167 5.88662567 44.69022186 5.88670349 43.72080994 C5.89186478 42.69790359 5.89702606 41.67499725 5.90234375 40.62109375 C5.9037587 39.57929459 5.90517365 38.53749542 5.90663147 37.46412659 C5.9122492 34.12188906 5.9248047 30.77971743 5.9375 27.4375 C5.94251272 25.17773534 5.94707602 22.91796963 5.95117188 20.65820312 C5.96222439 15.10544609 5.97897976 9.55272775 6 4 C5.195625 3.71125 4.39125 3.4225 3.5625 3.125 C1 2 1 2 0 0 Z " fill="#DFBEC9" transform="translate(479,468)"/>
<path d="M0 0 C6.49845689 2.40683589 10.99813322 10.02107526 14 16 C14.62791438 19.85718836 13.60832877 22.48178082 12 26 C-0.79685652 27.7988724 -14.14205838 28.9689414 -26 23 C-26 22.34 -26 21.68 -26 21 C-23.35261084 19.5393715 -22.10551666 19 -19 19 C-19 18.34 -19 17.68 -19 17 C-18.40832031 16.97421875 -17.81664062 16.9484375 -17.20703125 16.921875 C-11.90451431 16.54127019 -8.89565546 15.89565546 -5 12 C-4.401875 11.4225 -3.80375 10.845 -3.1875 10.25 C-2.795625 9.8375 -2.40375 9.425 -2 9 C-2.33 8.67 -2.66 8.34 -3 8 C-3.25 5.625 -3.25 5.625 -3 3 C-1.5 1.1875 -1.5 1.1875 0 0 Z " fill="#1D1717" transform="translate(201,380)"/>
<path d="M0 0 C3.33333333 3.33333333 6.66666667 6.66666667 10 10 C10.83337891 10.74636719 10.83337891 10.74636719 11.68359375 11.5078125 C13.375 13.0625 13.375 13.0625 16 16 C15.6105693 20.38758584 12.80952937 22.83027455 10 26 C11.65 26.33 13.3 26.66 15 27 C15 27.66 15 28.32 15 29 C13.68 29 12.36 29 11 29 C11 29.66 11 30.32 11 31 C9.68 31 8.36 31 7 31 C6.20576139 29.43880578 5.41472877 27.87598036 4.625 26.3125 C3.96371094 25.00732422 3.96371094 25.00732422 3.2890625 23.67578125 C2.65097656 22.35126953 2.65097656 22.35126953 2 21 C1.6184375 20.236875 1.236875 19.47375 0.84375 18.6875 C-0.3081003 15.0186435 -0.213307 11.48809732 -0.125 7.6875 C-0.11597656 6.94693359 -0.10695312 6.20636719 -0.09765625 5.44335938 C-0.07424213 3.62876533 -0.03837615 1.81433929 0 0 Z " fill="#180908" transform="translate(176,329)"/>
<path d="M0 0 C1.65 0.33 3.3 0.66 5 1 C4.68559115 3.82967968 3.82444778 5.23992137 2.125 7.5625 C-8.50619462 15.8548318 -25.2004334 14.16939665 -38.02783203 14.13037109 C-40.1293045 14.12498898 -42.23056502 14.130364 -44.33203125 14.13671875 C-65.62197231 14.1536399 -65.62197231 14.1536399 -70 10 C-70 9.01 -70 8.02 -70 7 C-69.21496094 7.2165625 -68.42992187 7.433125 -67.62109375 7.65625 C-61.91870811 9.16755711 -56.93579465 10.23743179 -51 10 C-49.39125 10.2784375 -49.39125 10.2784375 -47.75 10.5625 C-44.91978081 11.22956735 -44.91978081 11.22956735 -42 10 C-41.67 10.33 -41.34 10.66 -41 11 C-38.4333941 10.81893433 -35.89998779 10.47942291 -33.34765625 10.15625 C-31 10 -31 10 -29 11 C-28.67 10.34 -28.34 9.68 -28 9 C-27.29617188 9.18046875 -26.59234375 9.3609375 -25.8671875 9.546875 C-18.5962246 10.6959645 -10.40579437 8.48140998 -4 5 C-3.34 4.01 -2.68 3.02 -2 2 C-1.34 2 -0.68 2 0 2 C0 1.34 0 0.68 0 0 Z " fill="#3E100E" transform="translate(290,491)"/>
<path d="M0 0 C0.99 0.495 0.99 0.495 2 1 C2.67016602 3.39257812 2.67016602 3.39257812 3.25390625 6.53125 C3.46853516 7.65144531 3.68316406 8.77164062 3.90429688 9.92578125 C4.12150391 11.10527344 4.33871094 12.28476562 4.5625 13.5 C4.99800451 15.82353716 5.4366349 18.14649137 5.87890625 20.46875 C6.0704126 21.50451172 6.26191895 22.54027344 6.45922852 23.60742188 C6.76288226 25.94082254 6.76288226 25.94082254 8 27 C8.14115161 29.67058851 8.04247107 32.32432238 8 35 C5.69 35.99 3.38 36.98 1 38 C-0.12014799 29.96492265 -0.11441805 22.04070923 -0.0625 13.9375 C-0.05747314 12.58138187 -0.05291234 11.22526192 -0.04882812 9.86914062 C-0.03712079 6.57938006 -0.02072211 3.28971406 0 0 Z " fill="#693935" transform="translate(499,479)"/>
<path d="M0 0 C2.85617181 0.08400505 4.52593907 0.50654015 6.52734375 2.58984375 C7.53398959 3.84238781 8.51699444 5.11438584 9.47265625 6.40625 C11.26016534 8.27147688 12.48358404 8.6103614 15 9 C16.125 14.625 16.125 14.625 15 18 C14.931009 20.06145107 14.91532273 22.12501401 14.9375 24.1875 C14.94652344 25.27417969 14.95554688 26.36085938 14.96484375 27.48046875 C14.97644531 28.31191406 14.98804688 29.14335938 15 30 C15.66 30 16.32 30 17 30 C17.268125 30.78375 17.53625 31.5675 17.8125 32.375 C18.84814432 35.28114923 18.84814432 35.28114923 22 37 C21.67 38.32 21.34 39.64 21 41 C19 39.625 19 39.625 17 38 C17 37.34 17 36.68 17 36 C16.34 36 15.68 36 15 36 C14.72285156 35.43410156 14.44570312 34.86820313 14.16015625 34.28515625 C13.61681641 33.18494141 13.61681641 33.18494141 13.0625 32.0625 C12.70285156 31.33160156 12.34320313 30.60070312 11.97265625 29.84765625 C11.13628173 28.03750973 11.13628173 28.03750973 10 27 C9.83011813 23.44758134 9.70269175 19.90182698 9.65820312 16.34570312 C9.49991931 11.60866887 9.49991931 11.60866887 7.12890625 7.58984375 C6.42636719 7.06519531 5.72382813 6.54054688 5 6 C3.31110128 4.6949419 1.6396721 3.36639342 0 2 C0 1.34 0 0.68 0 0 Z " fill="#62312E" transform="translate(206,493)"/>
<path d="M0 0 C0 1.32 0 2.64 0 4 C3.465 5.485 3.465 5.485 7 7 C7 8.32 7 9.64 7 11 C4.43571485 11.13559675 1.87864784 11.23433188 -0.6875 11.3125 C-1.40873047 11.35439453 -2.12996094 11.39628906 -2.87304688 11.43945312 C-7.19577396 11.53814552 -8.54532962 11.37938214 -12.01953125 8.48046875 C-12.99986328 7.25263672 -12.99986328 7.25263672 -14 6 C-13.08486681 3.71216703 -12.34515354 2.26550272 -10.375 0.75 C-6.86146845 -0.35953628 -3.67700382 -0.12256679 0 0 Z " fill="#EDD6E0" transform="translate(477,457)"/>
<path d="M0 0 C4.62 0 9.24 0 14 0 C14 8.25 14 16.5 14 25 C13.67 25 13.34 25 13 25 C13 17.08 13 9.16 13 1 C12.01 1 11.02 1 10 1 C9.34 3.31 8.68 5.62 8 8 C7.071875 8.12375 7.071875 8.12375 6.125 8.25 C3.83647371 8.79948083 3.83647371 8.79948083 2.875 10.9375 C2.441875 11.9584375 2.441875 11.9584375 2 13 C1.34 13.66 0.68 14.32 0 15 C0 10.05 0 5.1 0 0 Z " fill="#DBBCC5" transform="translate(482,424)"/>
<path d="M0 0 C1.98 0 3.96 0 6 0 C5.34 0.66 4.68 1.32 4 2 C6.75927344 4.75927344 9.21154052 4.51783243 13 5 C13.33 5.33 13.66 5.66 14 6 C15.56172745 6.08685603 17.12729344 6.10702219 18.69140625 6.09765625 C19.63564453 6.09443359 20.57988281 6.09121094 21.55273438 6.08789062 C22.54595703 6.07951172 23.53917969 6.07113281 24.5625 6.0625 C25.55958984 6.05798828 26.55667969 6.05347656 27.58398438 6.04882812 C30.05604849 6.03700007 32.52799518 6.02051849 35 6 C34.401875 6.28875 33.80375 6.5775 33.1875 6.875 C30.80672208 8.04742026 30.80672208 8.04742026 28 10 C24.55796754 10.48179241 21.09719883 10.41638528 17.625 10.4375 C16.67882812 10.47037109 15.73265625 10.50324219 14.7578125 10.53710938 C7.747966 10.59125847 7.747966 10.59125847 3.9609375 7.59765625 C3.31382812 6.74042969 2.66671875 5.88320313 2 5 C1.34 4.34 0.68 3.68 0 3 C0 2.01 0 1.02 0 0 Z " fill="#261718" transform="translate(264,374)"/>
<path d="M0 0 C0.99 0 1.98 0 3 0 C3.33 1.98 3.66 3.96 4 6 C4.66 6 5.32 6 6 6 C4.88815666 8.22368668 3.93036125 9.43377507 2 11 C-0.15625 11.36328125 -0.15625 11.36328125 -2.5 11.3125 C-3.2734375 11.30863281 -4.046875 11.30476563 -4.84375 11.30078125 C-7 11 -7 11 -10 9 C-9.278125 8.51789063 -8.55625 8.03578125 -7.8125 7.5390625 C-6.884375 6.90742188 -5.95625 6.27578125 -5 5.625 C-4.071875 4.99851562 -3.14375 4.37203125 -2.1875 3.7265625 C-1.1046875 2.87191406 -1.1046875 2.87191406 0 2 C0 1.34 0 0.68 0 0 Z " fill="#26201F" transform="translate(199,388)"/>
<path d="M0 0 C2.7617529 0.62862939 5.26243703 1.45789749 7.85546875 2.59375 C8.55994141 2.90183594 9.26441406 3.20992188 9.99023438 3.52734375 C10.71533203 3.84832031 11.44042969 4.16929687 12.1875 4.5 C12.92419922 4.82097656 13.66089844 5.14195312 14.41992188 5.47265625 C19.86872691 7.86872691 19.86872691 7.86872691 21 9 C21.49027921 12.53001029 21.13576897 13.79634654 19.125 16.8125 C18.42375 17.534375 17.7225 18.25625 17 19 C16.34 19 15.68 19 15 19 C15.33 16.36 15.66 13.72 16 11 C12.07744874 7.87872999 7.79557911 5.70948687 3.36328125 3.40234375 C1 2 1 2 0 0 Z " fill="#330F0E" transform="translate(227,440)"/>
<path d="M0 0 C4.09839745 -0.3278718 6.61151901 -0.17985231 10.375 1.5625 C13.79964611 4.74252853 13.61411855 6.38921874 14 11 C14.05822173 14.07632009 13.98065928 17.14006 13.87890625 20.21484375 C13.85529526 21.07058487 13.83168427 21.92632599 13.80735779 22.80799866 C13.73131318 25.51802662 13.64703746 28.22772502 13.5625 30.9375 C13.5092199 32.78448955 13.45648 34.63149476 13.40429688 36.47851562 C13.27577909 40.98588235 13.13988312 45.49297226 13 50 C12.67 50 12.34 50 12 50 C11.99589111 48.78940918 11.99178223 47.57881836 11.98754883 46.33154297 C11.96571856 41.82476675 11.91138847 37.31885875 11.84741211 32.8125 C11.82426605 30.86499373 11.80984437 28.91736289 11.80444336 26.96972656 C11.79512891 24.16392698 11.75408494 21.36007746 11.70703125 18.5546875 C11.7109639 17.68883026 11.71489655 16.82297302 11.71894836 15.93087769 C11.57325087 9.84579429 10.22729577 7.35126955 6 3 C6 2.34 6 1.68 6 1 C4.02 1 2.04 1 0 1 C0 0.67 0 0.34 0 0 Z " fill="#997075" transform="translate(472,468)"/>
<path d="M0 0 C3.09219842 0.33054535 4.66198916 0.68993494 6.984375 2.8203125 C13.72059157 11.61316156 13.145761 19.22988155 13 30 C11.52734375 29.02734375 11.52734375 29.02734375 10 27 C9.65349549 23.38541086 9.56360626 19.87341721 9.56054688 16.24804688 C9.47262641 11.56825979 9.47262641 11.56825979 7.13671875 7.59765625 C6.43160156 7.07042969 5.72648438 6.54320312 5 6 C3.31110128 4.6949419 1.6396721 3.36639342 0 2 C0 1.34 0 0.68 0 0 Z " fill="#9B6F71" transform="translate(206,493)"/>
<path d="M0 0 C0 0.33 0 0.66 0 1 C-1.5159375 1.061875 -1.5159375 1.061875 -3.0625 1.125 C-8.73963899 1.89810633 -12.12447236 6.12447236 -16 10 C-16 9.34 -16 8.68 -16 8 C-17.1446875 7.5978125 -17.1446875 7.5978125 -18.3125 7.1875 C-20.91229902 6.0387516 -22.10215992 5.0314124 -24 3 C-21.50159546 2.49061655 -19.00176612 1.99236886 -16.5 1.5 C-15.80390625 1.35691406 -15.1078125 1.21382813 -14.390625 1.06640625 C-9.50912797 0.11722627 -4.97281701 -0.13440046 0 0 Z " fill="#755153" transform="translate(515,465)"/>
<path d="M0 0 C2.31 0.66 4.62 1.32 7 2 C7.33 3.32 7.66 4.64 8 6 C9.2065625 6.185625 9.2065625 6.185625 10.4375 6.375 C11.7059375 6.684375 11.7059375 6.684375 13 7 C13.33 7.66 13.66 8.32 14 9 C4.26995516 9.76681614 4.26995516 9.76681614 1.15625 7.88671875 C-0.1875 6.5 -0.1875 6.5 -2 4 C-1.34 2.68 -0.68 1.36 0 0 Z " fill="#E3C8D1" transform="translate(465,459)"/>
<path d="M0 0 C3.96 0 7.92 0 12 0 C13.28317892 3.84953676 13.06643637 6.94738135 13 11 C6.9453125 11.9765625 6.9453125 11.9765625 5 12 C4.34 11.34 3.68 10.68 3 10 C3.33 9.34 3.66 8.68 4 8 C6.64860427 7.40644386 9.29197322 7.25790731 12 7 C11.67 5.02 11.34 3.04 11 1 C7.37 1 3.74 1 0 1 C0 0.67 0 0.34 0 0 Z " fill="#C0A3AC" transform="translate(510,453)"/>
<path d="M0 0 C0.33 1.32 0.66 2.64 1 4 C2.65 3.01 4.3 2.02 6 1 C5.814375 1.7425 5.62875 2.485 5.4375 3.25 C4.79630981 5.91756277 4.79630981 5.91756277 5.6875 8.0625 C5.790625 8.701875 5.89375 9.34125 6 10 C4.0625 12.25 4.0625 12.25 2 14 C0.09391902 10.78817851 -0.22266247 8.46117397 -0.125 4.75 C-0.09792969 3.41195313 -0.09792969 3.41195313 -0.0703125 2.046875 C-0.04710937 1.37140625 -0.02390625 0.6959375 0 0 Z " fill="#EBCDD8" transform="translate(483,433)"/>
<path d="M0 0 C2.88437779 1.29299694 4.87219421 2.65941363 7 5 C6.67 5.99 6.34 6.98 6 8 C5.2575 7.814375 4.515 7.62875 3.75 7.4375 C1.05009037 7.00796892 -0.44631077 7.14877026 -3 8 C-3.36923077 3.44615385 -3.36923077 3.44615385 -1.5 1.1875 C-1.005 0.795625 -0.51 0.40375 0 0 Z " fill="#1E1414" transform="translate(201,380)"/>
<path d="M0 0 C0 0.66 0 1.32 0 2 C0.66 2.33 1.32 2.66 2 3 C0.54550599 4.0055761 -0.91372443 5.00430435 -2.375 6 C-3.59316406 6.8353125 -3.59316406 6.8353125 -4.8359375 7.6875 C-7 9 -7 9 -9 9 C-9.33 7.35 -9.66 5.7 -10 4 C-4.5 0 -4.5 0 0 0 Z " fill="#201315" transform="translate(244,204)"/>
<path d="M0 0 C0 0.33 0 0.66 0 1 C-6.0615263 3.13540594 -11.54876694 3.23853866 -17.9375 3.125 C-18.90751953 3.11597656 -19.87753906 3.10695312 -20.87695312 3.09765625 C-23.25156407 3.07426107 -25.62564776 3.04148176 -28 3 C-19.58809808 -1.38280082 -9.24314372 -0.11986786 0 0 Z " fill="#553F44" transform="translate(312,45)"/>
<path d="M0 0 C1.32 0.66 2.64 1.32 4 2 C2.55922954 5.36179774 0.75249979 7.59156268 -2 10 C-2.66 10 -3.32 10 -4 10 C-3.38461538 3.47692308 -3.38461538 3.47692308 -1.4375 1.0625 C-0.7259375 0.5365625 -0.7259375 0.5365625 0 0 Z " fill="#280A09" transform="translate(220,452)"/>
<path d="M0 0 C1.32 0.33 2.64 0.66 4 1 C2.515 2.485 2.515 2.485 1 4 C1.66 4 2.32 4 3 4 C3 4.66 3 5.32 3 6 C2.34 6 1.68 6 1 6 C1 6.66 1 7.32 1 8 C-1.76276177 7.47731534 -4.3260876 6.89130413 -7 6 C-7 5.34 -7 4.68 -7 4 C-4.35261084 2.5393715 -3.10551666 2 0 2 C0 1.34 0 0.68 0 0 Z " fill="#44383A" transform="translate(182,397)"/>
<path d="M0 0 C-0.33 1.65 -0.66 3.3 -1 5 C-2.65 5.33 -4.3 5.66 -6 6 C-6.99 4.35 -7.98 2.7 -9 1 C-6.04335481 -0.4783226 -3.25770263 -0.06032783 0 0 Z " fill="#342729" transform="translate(212,406)"/>
<path d="M0 0 C7.42857143 -0.14285714 7.42857143 -0.14285714 11 1 C11 2.32 11 3.64 11 5 C8.625 5.125 8.625 5.125 6 5 C5.34 4.34 4.68 3.68 4 3 C1.93125966 2.3574765 1.93125966 2.3574765 0 2 C0 1.34 0 0.68 0 0 Z " fill="#F2DFE9" transform="translate(473,463)"/>
<path d="M0 0 C3.11594739 0.8309193 5.45562935 1.51006642 7.875 3.6875 C9.41762368 6.85844867 9.20046354 9.52529869 9 13 C8.01 13.33 7.02 13.66 6 14 C6 10.7 6 7.4 6 4 C5.195625 3.71125 4.39125 3.4225 3.5625 3.125 C1 2 1 2 0 0 Z " fill="#CDABB0" transform="translate(479,468)"/>
<path d="M0 0 C0.66 0 1.32 0 2 0 C2 0.66 2 1.32 2 2 C2.86625 2.37125 2.86625 2.37125 3.75 2.75 C6.32939979 4.18299988 8.06121592 5.78424676 10 8 C10 8.66 10 9.32 10 10 C6.94749671 9.37562433 4.67908472 8.87252098 2.7109375 6.34375 C0 1.58498201 0 1.58498201 0 0 Z " fill="#A67A7C" transform="translate(221,529)"/>
<path d="M0 0 C0.99 0 1.98 0 3 0 C1.21934529 4.15486099 -1.25006011 6.88640189 -5.0625 9.3125 C-7 10 -7 10 -10 9 C-9.278125 8.51789063 -8.55625 8.03578125 -7.8125 7.5390625 C-6.884375 6.90742188 -5.95625 6.27578125 -5 5.625 C-4.071875 4.99851562 -3.14375 4.37203125 -2.1875 3.7265625 C-1.1046875 2.87191406 -1.1046875 2.87191406 0 2 C0 1.34 0 0.68 0 0 Z " fill="#352B2D" transform="translate(199,388)"/>
<path d="M0 0 C1.65 1.65 3.3 3.3 5 5 C4.01 5.495 4.01 5.495 3 6 C2.31068656 8.34907875 2.31068656 8.34907875 1.875 11.0625 C1.70742187 11.98160156 1.53984375 12.90070313 1.3671875 13.84765625 C1.24601563 14.55792969 1.12484375 15.26820313 1 16 C0.67 16 0.34 16 0 16 C0 10.72 0 5.44 0 0 Z " fill="#281718" transform="translate(176,329)"/>
<path d="M0 0 C4.51617599 -0.07654536 8.59085217 -0.10228696 13 1 C12.67 1.66 12.34 2.32 12 3 C10.18674449 2.88648483 8.37436643 2.75887039 6.5625 2.625 C5.04849609 2.52058594 5.04849609 2.52058594 3.50390625 2.4140625 C2.67761719 2.27742187 1.85132813 2.14078125 1 2 C0.67 1.34 0.34 0.68 0 0 Z " fill="#BE9CA5" transform="translate(485,518)"/>
<path d="M0 0 C1.32 0 2.64 0 4 0 C4.625 2.8125 4.625 2.8125 5 6 C4.01 7.485 4.01 7.485 3 9 C2.01 6.03 1.02 3.06 0 0 Z " fill="#5E2B27" transform="translate(217,502)"/>
<path d="M0 0 C2.84550012 0.66010476 5.52325999 1.51724966 8.25 2.5625 C8.95640625 2.83191406 9.6628125 3.10132813 10.390625 3.37890625 C10.92171875 3.58386719 11.4528125 3.78882813 12 4 C11.01 4.495 11.01 4.495 10 5 C9.67 5.66 9.34 6.32 9 7 C7.4972763 6.02501855 5.99788037 5.04490611 4.5 4.0625 C3.6646875 3.51722656 2.829375 2.97195313 1.96875 2.41015625 C1.3190625 1.94480469 0.669375 1.47945313 0 1 C0 0.67 0 0.34 0 0 Z " fill="#461B19" transform="translate(227,440)"/>
<path d="M0 0 C0 0.66 0 1.32 0 2 C-5.75 5 -5.75 5 -8 5 C-7.67 6.32 -7.34 7.64 -7 9 C-7.66 9 -8.32 9 -9 9 C-9.33 7.35 -9.66 5.7 -10 4 C-4.5 0 -4.5 0 0 0 Z " fill="#291819" transform="translate(244,204)"/>
<path d="M0 0 C0.33 0.66 0.66 1.32 1 2 C1.5775 2.12375 2.155 2.2475 2.75 2.375 C5.7870374 3.2186215 7.63688705 4.96509718 10 7 C5.7774565 7.3619323 3.33045394 6.66436316 0 4 C0 2.68 0 1.36 0 0 Z " fill="#53211D" transform="translate(228,530)"/>
<path d="M0 0 C2.375 0.25 2.375 0.25 5 1 C6.3125 3.0625 6.3125 3.0625 7 5 C4.625 4.75 4.625 4.75 2 4 C0.6875 1.9375 0.6875 1.9375 0 0 Z " fill="#895C5C" transform="translate(206,493)"/>
<path d="M0 0 C-1.98 1.32 -3.96 2.64 -6 4 C-7.32 2.68 -8.64 1.36 -10 0 C-3.375 -1.125 -3.375 -1.125 0 0 Z " fill="#9D7375" transform="translate(501,468)"/>
<path d="M0 0 C0 0.99 0 1.98 0 3 C-1.875 4.0625 -1.875 4.0625 -4 5 C-4.66 4.67 -5.32 4.34 -6 4 C-5.67 3.01 -5.34 2.02 -5 1 C-3 0 -3 0 0 0 Z " fill="#22201D" transform="translate(189,397)"/>
<path d="M0 0 C2.31 0.33 4.62 0.66 7 1 C7 1.66 7 2.32 7 3 C4.69 3 2.38 3 0 3 C0 2.01 0 1.02 0 0 Z " fill="#F3E3ED" transform="translate(489,450)"/>
<path d="M0 0 C0.33 0.99 0.66 1.98 1 3 C-0.65 4.65 -2.3 6.3 -4 8 C-4.66 7.67 -5.32 7.34 -6 7 C-4.02 4.69 -2.04 2.38 0 0 Z " fill="#372A2D" transform="translate(165,121)"/>
</svg>
