<svg width="10" height="10" viewBox="0 0 10 10" fill="none" xmlns="http://www.w3.org/2000/svg">
<g clip-path="url(#clip0_16_34579)">
<path d="M5 10C7.76142 10 10 7.76142 10 5C10 2.23858 7.76142 0 5 0C2.23858 0 0 2.23858 0 5C0 7.76142 2.23858 10 5 10Z" fill="#BA0202"/>
<path d="M6.45507 3.64919C6.59864 3.50561 6.83143 3.50561 6.975 3.64919C7.11858 3.79276 7.11858 4.02554 6.975 4.16912L4.76912 6.375C4.62554 6.51857 4.39276 6.51857 4.24919 6.375L3.0237 5.14951C2.88012 5.00593 2.88012 4.77315 3.0237 4.62958C3.16727 4.486 3.40005 4.486 3.54363 4.62958L4.50915 5.5951L6.45507 3.64919Z" fill="white"/>
</g>
<defs>
<clipPath id="clip0_16_34579">
<rect width="10" height="10" fill="white"/>
</clipPath>
</defs>
</svg>
